# xmcd
#
# Track frame offsets: 
#        150
#        29070
#        32148
#        64399
#        91270
#        124906
#        168990
#        196186
#        255659
#        313814
#
# Disc length: 4293 seconds
#
# Revision: 0
# Processed by: cddbd v1.4PL0 Copyright (c) Steve Scherf et al.
# Submitted via: ExactAudioCopy v0.95a3
#
DISCID=8d10c30a
DTITLE=Dave Matthews Band - Listener Supported [CD1]
DYEAR=1999
DGENRE=Blues
TTITLE0=Intro
TTITLE1=Pantala Naga Pampa
TTITLE2=Rapunzel
TTITLE3=Rhyme and Reason
TTITLE4=Stone
TTITLE5=#41
TTITLE6=Crash into Me
TTITLE7=Jimi Thing
TTITLE8=#36
TTITLE9=Warehouse
EXTD=
EXTT0=
EXTT1=
EXTT2=
EXTT3=
EXTT4=
EXTT5=
EXTT6=
EXTT7=
EXTT8=
EXTT9=
PLAYORDER=
